<svg width="123" height="126" viewBox="0 0 123 126" fill="none" xmlns="http://www.w3.org/2000/svg">
<path d="M18.0566 0.710938H100.208C103.074 0.710104 105.911 1.27393 108.559 2.3702C111.207 3.46647 113.612 5.07372 115.639 7.10014C117.666 9.12656 119.273 11.5325 120.37 14.1804C121.467 16.8284 122.031 19.6665 122.031 22.5327V104.093C122.031 109.88 119.733 115.431 115.641 119.523C111.55 123.616 106.001 125.915 100.214 125.915H22.4492C16.663 125.915 11.1138 123.616 7.02234 119.523C2.93088 115.431 0.632324 109.88 0.632324 104.093V18.1391C0.632324 13.5169 2.4681 9.08396 5.73579 5.81554C9.00348 2.54712 13.4354 0.710938 18.0566 0.710938Z" fill="#03396C"/>
<path d="M39.0419 103.045C32.9482 99.9172 27.8464 95.1529 24.309 89.2865C20.7232 83.2492 18.886 76.3337 19.0024 69.3123C18.8849 62.2909 20.7223 55.3751 24.309 49.3382C27.8448 43.4705 32.947 38.7058 39.0419 35.5797C45.3261 32.2697 52.4249 30.6169 60.3383 30.6211C68.2517 30.6253 75.3272 32.2782 81.5649 35.5797C87.6287 38.724 92.7038 43.486 96.228 49.3382C99.8119 55.3763 101.649 62.2912 101.535 69.3123C101.648 76.3333 99.8109 83.248 96.228 89.2865C92.702 95.1372 87.6273 99.8988 81.5649 103.045C75.323 106.346 68.2475 107.999 60.3383 108.004C52.4291 108.008 45.3303 106.355 39.0419 103.045ZM74.0937 84.4676C77.6737 80.6962 79.4659 75.6445 79.4701 69.3123C79.4744 62.9802 77.6822 57.9284 74.0937 54.1571C70.5094 50.3858 65.9242 48.5001 60.3383 48.5001C54.7524 48.5001 50.1376 50.3858 46.4941 54.1571C42.8632 57.9284 41.0478 62.9802 41.0478 69.3123C41.0478 75.6445 42.8632 80.6962 46.4941 84.4676C50.1376 88.2389 54.7524 90.1246 60.3383 90.1246C65.9242 90.1246 70.5094 88.2389 74.0937 84.4676Z" fill="#E6AF2E"/>
<path d="M87.8555 48.0812C93.5242 48.0812 98.1196 43.4848 98.1196 37.8148C98.1196 32.1448 93.5242 27.5483 87.8555 27.5483C82.1867 27.5483 77.5913 32.1448 77.5913 37.8148C77.5913 43.4848 82.1867 48.0812 87.8555 48.0812Z" fill="white"/>
<path d="M87.8555 49.9859C85.4488 49.9859 83.0961 49.2721 81.095 47.9347C79.0939 46.5973 77.5343 44.6964 76.6133 42.4724C75.6923 40.2484 75.4513 37.8012 75.9208 35.4403C76.3904 33.0793 77.5493 30.9106 79.2511 29.2084C80.9529 27.5062 83.1211 26.3471 85.4815 25.8774C87.842 25.4078 90.2887 25.6488 92.5121 26.57C94.7356 27.4912 96.6361 29.0512 97.9732 31.0528C99.3103 33.0543 100.024 35.4075 100.024 37.8147C100.021 41.0417 98.7375 44.1355 96.4562 46.4173C94.1749 48.6991 91.0817 49.9825 87.8555 49.9859ZM87.8555 29.453C86.2021 29.453 84.5858 29.9434 83.211 30.8622C81.8362 31.781 80.7647 33.0869 80.132 34.6148C79.4992 36.1427 79.3337 37.824 79.6562 39.446C79.9788 41.068 80.775 42.558 81.9442 43.7274C83.1133 44.8968 84.6029 45.6931 86.2246 46.0158C87.8462 46.3384 89.5271 46.1728 91.0547 45.54C92.5822 44.9071 93.8879 43.8353 94.8065 42.4603C95.725 41.0852 96.2153 39.4685 96.2153 37.8147C96.2137 35.5976 95.3324 33.4717 93.7649 31.904C92.1975 30.3362 90.0721 29.4547 87.8555 29.453Z" fill="#03396C"/>
</svg>

