<svg width="45" height="27" viewBox="0 0 45 27" fill="none" xmlns="http://www.w3.org/2000/svg">
<path d="M34.9774 12.194C32.6148 12.194 30.7044 14.1136 30.7044 16.4669C30.7044 17.0299 31.1658 17.4913 31.7288 17.4913C32.2918 17.4913 32.7532 17.0299 32.7532 16.4669C32.7532 15.2395 33.7592 14.2335 34.9866 14.2335C35.5496 14.2335 36.011 13.7721 36.011 13.2091C36.0018 12.6462 35.5403 12.194 34.9774 12.194Z" fill="#5D8AA8"/>
<path d="M41.9452 9.25002C41.696 9.01007 41.4283 8.77935 41.1515 8.55785L37.3676 5.34621C35.9095 4.31258 34.1745 3.65733 32.2918 3.52813L32.4948 3.73116L30.1968 1.42395H30.1784C29.5416 0.84253 28.6833 0.482605 27.7512 0.482605C26.1454 0.482605 24.7887 1.52547 24.3273 2.9744C23.8658 2.67907 23.3305 2.50372 22.7491 2.46681C22.6568 2.45758 22.5553 2.45758 22.463 2.45758C21.8078 2.45758 21.1987 2.65139 20.6819 2.9744C20.2112 1.53469 18.8546 0.491834 17.258 0.491834C16.3258 0.491834 15.4768 0.842531 14.8308 1.43318H14.8123L12.5143 3.74039L12.7174 3.53736C10.8347 3.66656 9.09042 4.33104 7.64149 5.35544L3.85766 8.56708C3.5808 8.77935 3.31316 9.01007 3.06398 9.25925C1.17206 11.0866 0 13.643 0 16.4762C0 22.0135 4.50368 26.5172 10.041 26.5172C15.1538 26.5172 19.3898 22.6688 19.9989 17.7129C20.7372 18.1374 21.5955 18.3774 22.5 18.3774C23.4136 18.3774 24.2627 18.1374 25.001 17.7129C25.6193 22.6595 29.8461 26.508 34.9589 26.508C40.4962 26.508 44.9999 22.0043 44.9999 16.467C45.0091 13.6337 43.8371 11.0773 41.9452 9.25002ZM10.041 23.324C6.25716 23.324 3.19318 20.26 3.19318 16.4762C3.19318 12.6924 6.25716 9.6284 10.041 9.6284C13.8248 9.6284 16.8888 12.6924 16.8888 16.4762C16.898 20.2508 13.8248 23.324 10.041 23.324ZM22.5092 15.5349C21.2817 15.5349 20.285 14.5382 20.285 13.3107C20.285 12.0833 21.2817 11.0866 22.5092 11.0866C23.7366 11.0866 24.7333 12.0833 24.7333 13.3107C24.7333 14.5382 23.7366 15.5349 22.5092 15.5349ZM34.9774 23.324C31.1935 23.324 28.1296 20.26 28.1296 16.4762C28.1296 12.6924 31.1935 9.6284 34.9774 9.6284C38.7612 9.6284 41.8252 12.6924 41.8252 16.4762C41.8252 20.2508 38.7612 23.324 34.9774 23.324Z" fill="#5D8AA8"/>
<path d="M10.041 12.194C7.67838 12.194 5.76801 14.1136 5.76801 16.4669C5.76801 17.0299 6.22945 17.4913 6.79241 17.4913C7.35537 17.4913 7.81681 17.0299 7.81681 16.4669C7.81681 15.2395 8.82276 14.2335 10.0502 14.2335C10.6132 14.2335 11.0746 13.7721 11.0746 13.2091C11.0654 12.6462 10.6039 12.194 10.041 12.194Z" fill="#5D8AA8"/>
</svg>
